<?xml version="1.0" encoding="utf-8"?>
<!-- Generator: Adobe Illustrator 27.5.0, SVG Export Plug-In . SVG Version: 6.00 Build 0)  -->
<svg version="1.1" id="Layer_1" xmlns="http://www.w3.org/2000/svg" xmlns:xlink="http://www.w3.org/1999/xlink" x="0px" y="0px"
	 viewBox="0 0 2108.9 576.6" style="enable-background:new 0 0 2108.9 576.6;" xml:space="preserve">
<style type="text/css">
	.st0{fill:#E03A94;}
</style>
<g>
	<g>
		<path d="M147,222.3h18.2c0.2-26.9,0.6-42.7,1.2-47.5c1.4-11.2,6-20.3,14.2-26.7c8-6.6,19.5-9.8,34.3-9.8c10.6,0,22.7,2.4,36.1,7.2
			v39.1c-7.4-2.2-13.4-3.2-18.2-3.2c-6,0-10.4,1.2-13.2,3.8c-2,1.8-3,5.8-3,11.6l-0.2,25.5h32.5v43.3h-32.5v160.8h-51.3V265.6h-18.2
			L147,222.3L147,222.3z"/>
	</g>
	<g>
		<path d="M353.8,217.1c19.3,0,37.3,4.8,54.3,14.4c16.8,9.6,30.3,22.7,39.7,39.3c9.4,16.6,14.2,34.3,14.2,53.5s-4.8,37.3-14.4,54.1
			c-9.6,16.8-22.7,29.9-39.1,39.3c-16.6,9.4-34.7,14.2-54.7,14.2c-29.3,0-54.3-10.4-75-31.3c-20.7-20.9-31.1-46.1-31.1-76
			c0-31.9,11.6-58.6,35.1-79.8C303.5,226.3,327.1,217.1,353.8,217.1z M354.6,265.4c-15.8,0-29.3,5.6-39.7,16.6
			c-10.4,11-16,25.3-16,42.5c0,17.8,5.2,32.1,15.6,43.1c10.4,11,23.7,16.6,39.7,16.6c16,0,29.3-5.6,40.1-16.6
			c10.6-11.2,16-25.5,16-42.9c0-17.4-5.2-31.7-15.6-42.7C384.3,270.8,371,265.4,354.6,265.4z"/>
	</g>
	<g>
		<path d="M482.7,222.3h51.3v20.9c11.6-9.8,22.1-16.6,31.7-20.5c9.4-3.8,19.1-5.8,29.1-5.8c20.3,0,37.5,7,51.5,21.3
			c11.8,12,17.8,29.7,17.8,53.3v135h-50.7V337c0-24.5-1-40.5-3.2-48.5c-2.2-8-6-14-11.4-18.2s-12-6.2-20.1-6.2
			c-10.4,0-19.3,3.4-26.7,10.4c-7.4,7-12.6,16.6-15.4,28.9c-1.4,6.4-2.2,20.3-2.2,41.5v82h-51.3L482.7,222.3L482.7,222.3z"/>
	</g>
	<g>
		<path d="M897,339.4H732.4c2.4,14.4,8.6,26.1,19.1,34.7c10.2,8.6,23.5,12.8,39.5,12.8c19.3,0,35.7-6.6,49.3-20.1l43.1,20.3
			c-10.8,15.2-23.7,26.5-38.7,33.9c-15,7.2-32.9,11-53.5,11c-32.1,0-58.2-10.2-78.4-30.3s-30.3-45.5-30.3-76
			c0-31.1,10-56.9,30.1-77.6c20.1-20.7,45.3-30.9,75.6-30.9c32.3,0,58.4,10.2,78.4,30.9c20.1,20.7,30.3,47.7,30.3,81.6L897,339.4z
			 M845.7,299.1c-3.4-11.4-10-20.7-20.1-27.7c-10-7.2-21.5-10.6-34.7-10.6c-14.2,0-26.9,4-37.5,12c-6.8,5-13,13.8-18.8,26.5
			L845.7,299.1z"/>
	</g>
	<g>
		<path d="M1222.9,217.1c19.3,0,37.3,4.8,54.3,14.4s30.3,22.7,39.7,39.3s14.2,34.3,14.2,53.5s-4.8,37.3-14.4,54.1
			c-9.6,16.8-22.7,29.9-39.1,39.3c-16.4,9.4-34.7,14.2-54.7,14.2c-29.3,0-54.3-10.4-75-31.3s-31.1-46.1-31.1-76
			c0-31.9,11.6-58.6,35.1-79.8C1172.7,226.3,1196.2,217.1,1222.9,217.1z M1223.7,265.4c-15.8,0-29.3,5.6-39.7,16.6
			c-10.4,11-15.8,25.3-15.8,42.5c0,17.8,5.2,32.1,15.6,43.1c10.4,11,23.7,16.6,39.7,16.6s29.3-5.6,40.1-16.6
			c10.6-11.2,16-25.5,16-42.9c0-17.4-5.2-31.7-15.6-42.7C1253.4,270.8,1240.1,265.4,1223.7,265.4z"/>
	</g>
	<g>
		<path d="M1351.8,222.3h51.7v98.5c0,19.3,1.4,32.5,4,39.9c2.6,7.4,6.8,13.2,12.6,17.4c5.8,4,13,6.2,21.5,6.2c8.4,0,15.8-2,21.7-6
			s10.4-10,13.2-17.8c2.2-5.8,3.2-18.4,3.2-37.7V222.7h51.3v86.4c0,35.7-2.8,60.2-8.4,73.2c-6.8,16-17,28.3-30.5,36.9
			c-13.4,8.6-30.5,12.8-51.1,12.8c-22.5,0-40.5-5-54.3-15c-13.8-10-23.7-23.9-29.3-41.9c-4-12.4-6-34.9-6-67.6L1351.8,222.3
			L1351.8,222.3z"/>
	</g>
	<g>
		<path d="M1686.5,251l-31.7,31.7c-12.8-12.8-24.7-19.1-35.1-19.1c-5.8,0-10.2,1.2-13.4,3.6c-3.2,2.4-4.8,5.4-4.8,9
			c0,2.8,1,5.4,3,7.6c2,2.4,7.2,5.4,15.2,9.4l18.8,9.4c19.9,9.8,33.3,19.7,40.7,29.9c7.4,10.2,11,22.1,11,35.7
			c0,18.2-6.6,33.3-20.1,45.3s-31.3,18.2-53.5,18.2c-29.7,0-53.5-11.6-71.4-34.9l31.5-34.3c6,7,13,12.6,21.1,17
			c8,4.2,15.2,6.4,21.5,6.4c6.8,0,12.2-1.6,16.4-4.8c4-3.2,6.2-7,6.2-11.2c0-7.8-7.4-15.6-22.3-23.1l-17.2-8.6
			c-33.1-16.6-49.5-37.5-49.5-62.6c0-16.2,6.2-29.9,18.6-41.3c12.4-11.4,28.5-17.2,47.7-17.2c13.2,0,25.9,2.8,37.5,8.6
			C1668.4,231.7,1678.5,239.9,1686.5,251z"/>
	</g>
	<g>
		<path d="M1914.1,339.4h-164.6c2.4,14.4,8.6,26.1,19.1,34.7c10.2,8.6,23.5,12.8,39.5,12.8c19.1,0,35.7-6.6,49.3-20.1l43.1,20.3
			c-10.8,15.2-23.7,26.5-38.7,33.9c-15,7.2-32.9,11-53.5,11c-32.1,0-58.2-10.2-78.4-30.3c-20.1-20.3-30.3-45.5-30.3-76
			c0-31.1,10-56.9,30.1-77.6c20.1-20.7,45.3-30.9,75.6-30.9c32.1,0,58.4,10.2,78.4,30.9c20.1,20.7,30.3,47.7,30.3,81.6L1914.1,339.4
			z M1863,299.1c-3.4-11.4-10-20.7-20.1-27.7c-10-7-21.5-10.6-34.7-10.6c-14.2,0-26.9,4-37.5,12c-6.8,5-13,13.8-18.8,26.5
			L1863,299.1z"/>
	</g>
	<g>
		<path d="M916.1,148.5H967v99.7c10-8.6,20.1-15,30.3-19.5c10.2-4.2,20.5-6.4,30.9-6.4c20.3,0,37.3,7,51.3,21.1
			c11.8,12,17.8,30.1,17.8,53.5V432h-50.5v-89.6c0-23.7-1.2-39.7-3.4-48.1s-6-14.6-11.6-18.8c-5.4-4.2-12.2-6.2-20.3-6.2
			c-10.4,0-19.3,3.4-26.7,10.2c-7.4,6.8-12.6,16.2-15.4,28.3c-1.4,6.2-2.2,20.1-2.2,42.1v82h-50.9L916.1,148.5L916.1,148.5z"/>
	</g>
</g>
<ellipse transform="matrix(0.1602 -0.9871 0.9871 0.1602 1226.7225 2260.895)" class="st0" cx="1942.1" cy="409.5" rx="22.3" ry="22.3"/>
</svg>
