<svg width="560" height="100" viewBox="0 0 560 100" fill="none" xmlns="http://www.w3.org/2000/svg">
<path d="M19.793 44.1719V35.8047H23.625V26.3828H33.8555V35.8047H40.957V44.1719H33.8555V66.4961C33.8555 67.3633 34.1953 68.1133 34.875 68.7461C35.5781 69.3555 36.3867 69.6602 37.3008 69.6602C38.4961 69.6602 39.3867 69.4609 39.9727 69.0625L41.9766 77.1484C39.9141 78.2031 37.3945 78.7305 34.418 78.7305C31.207 78.7305 28.6055 77.7109 26.6133 75.6719C24.6211 73.6328 23.625 70.9727 23.625 67.6914V44.1719H19.793ZM54.7762 77.5H44.5458V23.5H54.7762V41.4297H54.9872C55.995 39.6016 57.5536 38.0078 59.663 36.6484C61.7723 35.2656 64.1981 34.5742 66.9403 34.5742C71.7919 34.5742 75.6942 36.2148 78.6473 39.4961C81.6005 42.7539 83.077 47.0195 83.077 52.293V77.5H72.8466V53.0312C72.8466 50.4766 71.9677 48.3086 70.2098 46.5273C68.452 44.7227 66.3309 43.8203 63.8466 43.8203C61.2919 43.8203 59.1356 44.7227 57.3778 46.5273C55.6434 48.3086 54.7762 50.4766 54.7762 53.0312V77.5ZM132.545 56.6172C132.545 58 132.357 59.5352 131.982 61.2227H98.408C99.1345 63.707 100.611 65.7578 102.838 67.375C105.064 68.9922 107.502 69.8008 110.15 69.8008C112.494 69.8008 114.744 69.2383 116.9 68.1133C119.08 66.9883 120.697 65.5352 121.752 63.7539L128.713 69.8711C126.603 72.6133 123.92 74.7812 120.662 76.375C117.404 77.9453 113.9 78.7305 110.15 78.7305C103.822 78.7305 98.4431 76.6094 94.0134 72.3672C89.6072 68.1016 87.4041 62.8516 87.4041 56.6172C87.4041 50.3828 89.6072 45.1562 94.0134 40.9375C98.4431 36.6953 103.822 34.5742 110.15 34.5742C116.338 34.5742 121.611 36.7188 125.97 41.0078C130.353 45.2734 132.545 50.4766 132.545 56.6172ZM98.4783 52.5742H121.611C120.978 49.8789 119.607 47.6758 117.498 45.9648C115.388 44.2305 112.939 43.3633 110.15 43.3633C107.408 43.3633 104.935 44.2422 102.732 46C100.529 47.7344 99.1111 49.9258 98.4783 52.5742ZM134.692 44.1719V35.8047H138.594V32.8516C138.594 29.6406 139.743 27.0039 142.04 24.9414C144.36 22.8789 147.219 21.8477 150.618 21.8477C153.173 21.8477 155.458 22.375 157.473 23.4297L154.942 31.1289C154.356 30.7539 153.465 30.5664 152.27 30.5664C151.356 30.5664 150.548 30.8828 149.844 31.5156C149.165 32.125 148.825 32.8633 148.825 33.7305V35.8047H155.891V44.1719H148.825V77.5H138.594V44.1719H134.692ZM192.175 56.6172C192.175 53.1016 190.933 50.0898 188.449 47.582C185.988 45.0742 182.988 43.8203 179.449 43.8203C175.933 43.8203 172.921 45.0859 170.414 47.6172C167.929 50.125 166.687 53.125 166.687 56.6172C166.687 60.1797 167.929 63.2266 170.414 65.7578C172.921 68.2656 175.933 69.5195 179.449 69.5195C183.011 69.5195 186.023 68.2656 188.484 65.7578C190.945 63.2266 192.175 60.1797 192.175 56.6172ZM202.828 56.6172C202.828 62.8516 200.507 68.1016 195.867 72.3672C191.25 76.6094 185.777 78.7305 179.449 78.7305C173.167 78.7305 167.695 76.6094 163.031 72.3672C158.367 68.1016 156.035 62.8516 156.035 56.6172C156.035 50.4297 158.355 45.2148 162.996 40.9727C167.66 36.707 173.132 34.5742 179.414 34.5742C185.718 34.5742 191.191 36.707 195.832 40.9727C200.496 45.2148 202.828 50.4297 202.828 56.6172ZM217.42 77.5H207.19V35.8047H217.42V42.2031H217.561C220.163 37.1172 224.194 34.5742 229.655 34.5742C234.459 34.5742 238.362 36.2266 241.362 39.5312C244.362 42.8125 245.862 47.0664 245.862 52.293V77.5H235.631V53.0312C235.631 50.4766 234.741 48.3086 232.959 46.5273C231.178 44.7227 229.045 43.8203 226.561 43.8203C224.006 43.8203 221.838 44.7227 220.057 46.5273C218.299 48.3086 217.42 50.4766 217.42 53.0312V77.5ZM295.329 56.6172C295.329 58 295.142 59.5352 294.767 61.2227H261.193C261.919 63.707 263.396 65.7578 265.622 67.375C267.849 68.9922 270.286 69.8008 272.935 69.8008C275.279 69.8008 277.529 69.2383 279.685 68.1133C281.865 66.9883 283.482 65.5352 284.536 63.7539L291.497 69.8711C289.388 72.6133 286.704 74.7812 283.447 76.375C280.189 77.9453 276.685 78.7305 272.935 78.7305C266.607 78.7305 261.228 76.6094 256.798 72.3672C252.392 68.1016 250.189 62.8516 250.189 56.6172C250.189 50.3828 252.392 45.1562 256.798 40.9375C261.228 36.6953 266.607 34.5742 272.935 34.5742C279.122 34.5742 284.396 36.7188 288.755 41.0078C293.138 45.2734 295.329 50.4766 295.329 56.6172ZM261.263 52.5742H284.396C283.763 49.8789 282.392 47.6758 280.283 45.9648C278.173 44.2305 275.724 43.3633 272.935 43.3633C270.193 43.3633 267.72 44.2422 265.517 46C263.314 47.7344 261.896 49.9258 261.263 52.5742ZM309.887 77.5H299.656V23.5H309.887V41.4297H310.098C311.106 39.6016 312.664 38.0078 314.774 36.6484C316.883 35.2656 319.309 34.5742 322.051 34.5742C326.902 34.5742 330.805 36.2148 333.758 39.4961C336.711 42.7539 338.188 47.0195 338.188 52.293V77.5H327.957V53.0312C327.957 50.4766 327.078 48.3086 325.32 46.5273C323.563 44.7227 321.442 43.8203 318.957 43.8203C316.402 43.8203 314.246 44.7227 312.488 46.5273C310.754 48.3086 309.887 50.4766 309.887 53.0312V77.5ZM378.655 56.6172C378.655 53.1016 377.413 50.0898 374.929 47.582C372.468 45.0742 369.468 43.8203 365.929 43.8203C362.413 43.8203 359.401 45.0859 356.894 47.6172C354.409 50.125 353.167 53.125 353.167 56.6172C353.167 60.1797 354.409 63.2266 356.894 65.7578C359.401 68.2656 362.413 69.5195 365.929 69.5195C369.491 69.5195 372.503 68.2656 374.964 65.7578C377.425 63.2266 378.655 60.1797 378.655 56.6172ZM389.308 56.6172C389.308 62.8516 386.987 68.1016 382.347 72.3672C377.73 76.6094 372.257 78.7305 365.929 78.7305C359.647 78.7305 354.175 76.6094 349.511 72.3672C344.847 68.1016 342.515 62.8516 342.515 56.6172C342.515 50.4297 344.835 45.2148 349.476 40.9727C354.14 36.707 359.612 34.5742 365.894 34.5742C372.198 34.5742 377.671 36.707 382.312 40.9727C386.976 45.2148 389.308 50.4297 389.308 56.6172ZM422.111 35.8047H432.342V77.5H422.111V71.1016H421.971C420.869 73.3047 419.287 75.1328 417.225 76.5859C415.162 78.0156 412.713 78.7305 409.877 78.7305C405.072 78.7305 401.17 77.0898 398.17 73.8086C395.17 70.5039 393.67 66.2383 393.67 61.0117V35.8047H403.9V60.3086C403.9 62.8633 404.779 65.043 406.537 66.8477C408.318 68.6289 410.463 69.5195 412.971 69.5195C415.525 69.5195 417.682 68.6172 419.439 66.8125C421.221 65.0078 422.111 62.8398 422.111 60.3086V35.8047ZM454.317 69.6602C456.567 69.8008 458.384 69.4844 459.766 68.7109C461.173 67.9375 461.876 66.9062 461.876 65.6172C461.876 64.4219 461.43 63.4609 460.54 62.7344C459.649 62.0078 458.477 61.5039 457.024 61.2227C455.595 60.9414 454.013 60.6953 452.278 60.4844C450.567 60.25 448.845 59.9102 447.11 59.4648C445.376 59.0195 443.782 58.3867 442.329 57.5664C440.899 56.7461 439.739 55.4688 438.848 53.7344C437.958 52 437.513 49.8672 437.513 47.3359C437.513 43.3516 439.036 40.2227 442.083 37.9492C445.153 35.6523 449.231 34.5039 454.317 34.5039C460.598 34.5039 466.141 36.1445 470.946 39.4258L466.481 47.125C463.411 44.7812 459.356 43.5977 454.317 43.5742C450.052 43.5742 447.907 44.8281 447.884 47.3359C447.884 48.5312 448.341 49.457 449.255 50.1133C450.169 50.7461 451.329 51.2031 452.735 51.4844C454.165 51.7422 455.759 51.9648 457.516 52.1523C459.274 52.3398 461.02 52.6797 462.755 53.1719C464.513 53.6406 466.095 54.2969 467.501 55.1406C468.93 55.9844 470.102 57.2969 471.016 59.0781C471.93 60.8359 472.388 63.0156 472.388 65.6172C472.388 69.7422 470.653 72.9648 467.184 75.2852C463.739 77.582 459.45 78.7305 454.317 78.7305C447.544 78.7305 441.661 77.1016 436.669 73.8438L441.626 65.6875C444.813 68.0547 449.044 69.3789 454.317 69.6602ZM520.414 56.6172C520.414 58 520.226 59.5352 519.851 61.2227H486.277C487.004 63.707 488.48 65.7578 490.707 67.375C492.933 68.9922 495.371 69.8008 498.019 69.8008C500.363 69.8008 502.613 69.2383 504.769 68.1133C506.949 66.9883 508.566 65.5352 509.621 63.7539L516.582 69.8711C514.472 72.6133 511.789 74.7812 508.531 76.375C505.273 77.9453 501.769 78.7305 498.019 78.7305C491.691 78.7305 486.312 76.6094 481.883 72.3672C477.476 68.1016 475.273 62.8516 475.273 56.6172C475.273 50.3828 477.476 45.1562 481.883 40.9375C486.312 36.6953 491.691 34.5742 498.019 34.5742C504.207 34.5742 509.48 36.7188 513.84 41.0078C518.222 45.2734 520.414 50.4766 520.414 56.6172ZM486.347 52.5742H509.48C508.847 49.8789 507.476 47.6758 505.367 45.9648C503.258 44.2305 500.808 43.3633 498.019 43.3633C495.277 43.3633 492.804 44.2422 490.601 46C488.398 47.7344 486.98 49.9258 486.347 52.5742Z" fill="#111111"/>
<path d="M535.317 76.3186C534.123 77.5127 532.713 78.1097 531.087 78.1097C529.486 78.1097 528.089 77.5127 526.895 76.3186C525.701 75.1246 525.104 73.7273 525.104 72.1268C525.104 70.5008 525.701 69.0908 526.895 67.8968C528.089 66.7027 529.486 66.1057 531.087 66.1057C532.713 66.1057 534.123 66.7027 535.317 67.8968C536.511 69.0908 537.108 70.5008 537.108 72.1268C537.108 73.7273 536.511 75.1246 535.317 76.3186Z" fill="#008080"/>
</svg>
