<?xml version="1.0" encoding="utf-8"?>
<!-- Generator: Adobe Illustrator 24.3.0, SVG Export Plug-In . SVG Version: 6.00 Build 0)  -->
<svg version="1.1" id="Layer_1" xmlns="http://www.w3.org/2000/svg" xmlns:xlink="http://www.w3.org/1999/xlink" x="0px" y="0px"
	 viewBox="0 0 1169.3 356.2" style="enable-background:new 0 0 1169.3 356.2;" xml:space="preserve">
<style type="text/css">
	.st0{fill:#191919;}
	.st1{fill:#00B67A;}
	.st2{fill:#005128;}
	.st3{fill:#DCDCE6;}
	.st4{fill:#FFFFFF;}
	.st5{fill:none;}
	.st6{enable-background:new    ;}
</style>
<desc>Created with Sketch.</desc>
<g id="trustpilot-wrap">
	<g id="Trustpilot_brandmark_gr-blk_RGB">
		<g id="Type" transform="translate(297.000000, 98.000000)">
			<path id="Shape" class="st0" d="M-2090.3-277.5h57.7v10.8h-22.7v60.5h-12.5v-60.5h-22.6L-2090.3-277.5L-2090.3-277.5z
				 M-2035.1-257.9h10.7v10h0.2c0.4-1.4,1-2.8,2-4.1s2.1-2.6,3.5-3.6c1.4-1.1,2.9-2,4.5-2.7c1.7-0.7,3.4-1,5.1-1
				c1.3,0,2.3,0.1,2.8,0.1c0.5,0.1,1,0.2,1.6,0.2v11c-0.8-0.2-1.6-0.3-2.5-0.4s-1.7-0.2-2.5-0.2c-1.9,0-3.7,0.4-5.4,1.2
				c-1.7,0.8-3.2,1.9-4.4,3.4c-1.3,1.5-2.3,3.3-3,5.5c-0.8,2.2-1.1,4.7-1.1,7.6v24.5h-11.4L-2035.1-257.9L-2035.1-257.9z
				 M-1952.6-206.3h-11.2v-7.2h-0.2c-1.4,2.6-3.5,4.7-6.2,6.2c-2.8,1.6-5.6,2.4-8.4,2.4c-6.8,0-11.7-1.7-14.7-5
				c-3-3.4-4.5-8.4-4.5-15.2v-32.7h11.4v31.6c0,4.5,0.9,7.7,2.6,9.6c1.7,1.9,4.2,2.8,7.3,2.8c2.4,0,4.4-0.4,6-1.1s2.9-1.7,3.9-3
				c1-1.2,1.7-2.7,2.2-4.4s0.7-3.6,0.7-5.6v-29.9h11.4v51.5H-1952.6z M-1933.3-222.8c0.4,3.3,1.6,5.6,3.8,7c2.2,1.3,4.8,2,7.9,2
				c1.1,0,2.3-0.1,3.6-0.3s2.7-0.5,3.8-1c1.2-0.5,2.2-1.2,3-2.1c0.8-0.9,1.1-2.1,1.1-3.5c-0.1-1.5-0.6-2.7-1.6-3.6
				c-1-1-2.3-1.7-3.8-2.3c-1.6-0.6-3.3-1.1-5.3-1.5s-4-0.9-6.1-1.3c-2.1-0.5-4.2-1.1-6.1-1.7c-2-0.7-3.7-1.6-5.3-2.7
				c-1.6-1.1-2.8-2.6-3.7-4.3c-1-1.8-1.4-3.9-1.4-6.5c0-2.8,0.7-5.1,2.1-7s3.1-3.4,5.2-4.6c2.1-1.2,4.4-2,7-2.5s5-0.7,7.3-0.7
				c2.7,0,5.2,0.3,7.6,0.9s4.6,1.5,6.6,2.8s3.6,2.9,4.9,4.9s2.1,4.5,2.5,7.3h-11.9c-0.6-2.7-1.8-4.6-3.7-5.5c-2-1-4.2-1.4-6.7-1.4
				c-0.8,0-1.8,0.1-2.9,0.2c-1.1,0.2-2.1,0.4-3.1,0.8c-1,0.4-1.8,0.9-2.5,1.6c-0.7,0.7-1,1.6-1,2.8c0,1.4,0.5,2.5,1.5,3.4
				s2.2,1.6,3.8,2.2c1.6,0.6,3.3,1.1,5.3,1.5s4.1,0.9,6.2,1.3c2.1,0.5,4.1,1.1,6.1,1.7s3.8,1.6,5.3,2.7c1.6,1.2,2.8,2.6,3.8,4.3
				s1.5,3.9,1.5,6.4c0,3.1-0.7,5.6-2.1,7.8c-1.4,2.1-3.2,3.9-5.4,5.2c-2.2,1.3-4.7,2.3-7.4,2.9c-2.7,0.6-5.4,0.9-8.1,0.9
				c-3.3,0-6.3-0.4-9.1-1.1c-2.8-0.8-5.2-1.9-7.2-3.3c-2-1.5-3.6-3.4-4.8-5.6c-1.2-2.2-1.8-4.9-1.9-7.9h11.5v-0.2H-1933.3z
				 M-1895.8-257.9h8.6v-15.5h11.4v15.5h10.3v8.5h-10.3v27.6c0,1.2,0.1,2.2,0.2,3.1c0.1,0.9,0.4,1.6,0.7,2.2s0.9,1.1,1.7,1.4
				s1.7,0.5,3,0.5c0.8,0,1.6,0,2.4-0.1s1.6-0.2,2.4-0.4v8.8c-1.3,0.2-2.5,0.3-3.7,0.4c-1.2,0.2-2.4,0.2-3.7,0.2
				c-3,0-5.4-0.3-7.2-0.9c-1.8-0.6-3.3-1.4-4.3-2.5c-1.1-1.1-1.7-2.5-2.1-4.1c-0.4-1.7-0.6-3.6-0.7-5.7v-30.4h-8.6v-8.6H-1895.8z
				 M-1857.5-257.9h10.8v7h0.2c1.6-3,3.8-5.1,6.7-6.4c2.9-1.3,5.9-2,9.3-2c4.1,0,7.6,0.7,10.6,2.2c3,1.4,5.5,3.4,7.5,5.9
				s3.5,5.4,4.5,8.7s1.5,6.9,1.5,10.7c0,3.5-0.5,6.8-1.4,10.1s-2.3,6.1-4.1,8.6c-1.8,2.5-4.1,4.5-6.9,6s-6.1,2.3-9.9,2.3
				c-1.7,0-3.3-0.2-5-0.5s-3.3-0.8-4.8-1.5s-3-1.5-4.2-2.6c-1.3-1.1-2.4-2.3-3.3-3.6h-0.2v25.7h-11.4v-70.6H-1857.5z M-1817.8-232
				c0-2.3-0.3-4.6-0.9-6.8s-1.5-4.1-2.7-5.8s-2.7-3.1-4.5-4.1s-3.9-1.6-6.2-1.6c-4.8,0-8.4,1.7-10.8,5s-3.6,7.7-3.6,13.3
				c0,2.6,0.3,5,1,7.2s1.6,4.1,2.9,5.7c1.3,1.6,2.8,2.9,4.5,3.8c1.8,1,3.8,1.4,6.1,1.4c2.6,0,4.8-0.6,6.6-1.6
				c1.8-1.1,3.3-2.5,4.4-4.1c1.2-1.7,2-3.6,2.5-5.8C-1818-227.5-1817.8-229.7-1817.8-232z M-1797.7-277.5h11.4v10.8h-11.4V-277.5z
				 M-1797.7-257.9h11.4v51.6h-11.4V-257.9z M-1776.2-277.5h11.4v71.2h-11.4V-277.5z M-1730-204.9c-4.1,0-7.8-0.7-11-2.1
				c-3.2-1.4-5.9-3.3-8.2-5.6c-2.2-2.4-3.9-5.3-5.1-8.6s-1.8-7-1.8-11c0-3.9,0.6-7.5,1.8-10.9c1.2-3.3,2.9-6.2,5.1-8.6
				c2.2-2.4,5-4.3,8.2-5.6c3.2-1.4,6.9-2.1,11-2.1s7.8,0.7,11,2.1s5.9,3.3,8.2,5.6c2.2,2.4,3.9,5.3,5.1,8.6s1.8,6.9,1.8,10.9
				s-0.6,7.6-1.8,11c-1.2,3.3-2.9,6.2-5.1,8.6s-5,4.3-8.2,5.6C-1722.2-205.6-1725.9-204.9-1730-204.9z M-1730-213.9
				c2.5,0,4.7-0.6,6.6-1.6c1.9-1.1,3.4-2.5,4.6-4.2s2.1-3.7,2.7-5.8c0.6-2.2,0.9-4.4,0.9-6.6c0-2.2-0.3-4.4-0.9-6.6
				c-0.6-2.2-1.5-4.1-2.7-5.8s-2.7-3.1-4.6-4.1c-1.9-1.1-4.1-1.6-6.6-1.6s-4.7,0.6-6.6,1.6c-1.9,1.1-3.4,2.5-4.6,4.1
				c-1.2,1.7-2.1,3.6-2.7,5.8s-0.9,4.4-0.9,6.6c0,2.3,0.3,4.5,0.9,6.6c0.6,2.2,1.5,4.1,2.7,5.8s2.7,3.1,4.6,4.2
				C-1734.7-214.4-1732.5-213.9-1730-213.9z M-1700.6-257.9h8.6v-15.5h11.4v15.5h10.3v8.5h-10.3v27.6c0,1.2,0.1,2.2,0.2,3.1
				c0.1,0.9,0.4,1.6,0.7,2.2s0.9,1.1,1.7,1.4s1.7,0.5,3,0.5c0.8,0,1.6,0,2.4-0.1s1.6-0.2,2.4-0.4v8.8c-1.3,0.2-2.5,0.3-3.7,0.4
				c-1.2,0.2-2.4,0.2-3.7,0.2c-3,0-5.4-0.3-7.2-0.9c-1.8-0.6-3.3-1.4-4.3-2.5c-1.1-1.1-1.7-2.5-2.1-4.1c-0.4-1.7-0.6-3.6-0.7-5.7
				v-30.4h-8.6v-8.6H-1700.6z"/>
		</g>
		<g id="Star">
			<polygon id="Path" class="st1" points="-1806.6,-179.5 -1858.6,-179.5 -1874.7,-229.1 -1890.9,-179.5 -1943,-179.6 
				-1900.8,-148.9 -1916.9,-99.4 -1874.7,-130 -1832.6,-99.4 -1848.7,-148.9 			"/>
			<polygon id="Path_1_" class="st2" points="-1845.1,-137.7 -1848.7,-148.9 -1874.7,-130 			"/>
		</g>
	</g>
	<g id="Trustpilot_ratings_4halfstar-RGB" transform="translate(0.000000, 319.000000)">
		<rect id="Rectangle-path" x="-1944.2" y="-378.5" class="st1" width="212" height="212"/>
		<rect id="Rectangle-path_1_" x="-1714.2" y="-378.5" class="st1" width="212" height="212"/>
		<rect id="Rectangle-path_2_" x="-1485.2" y="-378.5" class="st1" width="212" height="212"/>
		<rect id="Rectangle-path_3_" x="-1255.2" y="-378.5" class="st1" width="212" height="212"/>
		<g id="Half" transform="translate(919.000000, 0.000000)">
			<rect id="Rectangle-path_4_" x="-1838.2" y="-378.5" class="st3" width="106" height="212"/>
			<rect id="Rectangle-path_5_" x="-1944.2" y="-378.5" class="st1" width="106" height="212"/>
		</g>
		<path id="Shape_1_" class="st4" d="M-1838.2-235.7l32.2-8.1l13.4,41.4L-1838.2-235.7z M-1764.2-289.2h-56.6l-17.4-53.3l-17.4,53.3
			h-56.6l45.8,33l-17.4,53.3l45.8-33l28.2-20.3L-1764.2-289.2L-1764.2-289.2L-1764.2-289.2L-1764.2-289.2z"/>
		<path id="Shape_2_" class="st4" d="M-1608.2-235.7l32.2-8.1l13.4,41.4L-1608.2-235.7z M-1534.2-289.2h-56.6l-17.4-53.3l-17.4,53.3
			h-56.6l45.8,33l-17.4,53.3l45.8-33l28.2-20.3L-1534.2-289.2L-1534.2-289.2L-1534.2-289.2L-1534.2-289.2z"/>
		<path id="Shape_3_" class="st4" d="M-1379.2-235.7l32.2-8.1l13.4,41.4L-1379.2-235.7z M-1305.2-289.2h-56.6l-17.4-53.3l-17.4,53.3
			h-56.6l45.8,33l-17.4,53.3l45.8-33l28.2-20.3L-1305.2-289.2L-1305.2-289.2L-1305.2-289.2L-1305.2-289.2z"/>
		<path id="Shape_4_" class="st4" d="M-1149.2-235.7l32.2-8.1l13.4,41.4L-1149.2-235.7z M-1075.2-289.2h-56.6l-17.4-53.3l-17.4,53.3
			h-56.6l45.8,33l-17.4,53.3l45.8-33l28.2-20.3L-1075.2-289.2L-1075.2-289.2L-1075.2-289.2L-1075.2-289.2z"/>
		<path id="Shape_5_" class="st4" d="M-919.2-235.7l32.2-8.1l13.4,41.4L-919.2-235.7z M-845.2-289.2h-56.6l-17.4-53.3l-17.4,53.3
			h-56.6l45.8,33l-17.4,53.3l45.8-33l28.2-20.3L-845.2-289.2L-845.2-289.2L-845.2-289.2L-845.2-289.2z"/>
	</g>
	<rect x="-1275" y="191.5" class="st5" width="691.7" height="138.3"/>
	<text transform="matrix(1 0 0 1 -1275.0436 259.9106)" style="font-family:'Helvetica-Oblique'; font-size:95px;">“Excellent”</text>
</g>
<g id="trustpilot-wrap_1_">
	<g id="Trustpilot_brandmark_gr-blk_RGB_1_">
		<g id="Type_1_" transform="translate(297.000000, 98.000000)">
			<path id="Shape_11_" d="M527-59.6h44.7v8.3h-17.6v46.9h-9.7v-46.9H527V-59.6L527-59.6z M569.8-44.3h8.3v7.7h0.2
				c0.3-1.1,0.8-2.1,1.5-3.2c0.7-1,1.6-2,2.7-2.8c1.1-0.9,2.2-1.5,3.5-2.1c1.3-0.5,2.6-0.8,3.9-0.8c1,0,1.8,0,2.1,0.1
				c0.4,0,0.8,0.1,1.2,0.2v8.5c-0.6-0.1-1.2-0.2-1.9-0.3s-1.3-0.1-1.9-0.1c-1.5,0-2.9,0.3-4.2,0.9s-2.5,1.5-3.4,2.6
				c-1,1.2-1.8,2.6-2.3,4.3c-0.6,1.7-0.9,3.7-0.9,5.9v19h-8.8L569.8-44.3L569.8-44.3z M633.7-4.3H625v-5.6h-0.2
				c-1.1,2-2.7,3.6-4.8,4.8s-4.3,1.8-6.5,1.8c-5.3,0-9.1-1.3-11.4-3.9c-2.3-2.6-3.5-6.5-3.5-11.8v-25.4h8.8v24.5c0,3.5,0.7,6,2,7.4
				s3.2,2.2,5.7,2.2c1.9,0,3.4-0.3,4.6-0.9s2.3-1.3,3-2.3c0.8-0.9,1.3-2.1,1.7-3.4s0.5-2.8,0.5-4.3v-23.2h8.8L633.7-4.3L633.7-4.3z
				 M648.8-17.2c0.3,2.6,1.2,4.4,2.9,5.4s3.7,1.6,6.1,1.6c0.8,0,1.8-0.1,2.8-0.2c1.1-0.1,2.1-0.4,3-0.7c0.9-0.4,1.7-0.9,2.3-1.6
				c0.6-0.7,0.9-1.6,0.8-2.7c0-1.1-0.5-2.1-1.2-2.8c-0.8-0.7-1.8-1.3-3-1.8c-1.2-0.4-2.6-0.8-4.1-1.1c-1.6-0.3-3.1-0.7-4.7-1
				c-1.6-0.4-3.2-0.8-4.8-1.3c-1.5-0.5-2.9-1.2-4.1-2.1c-1.2-0.9-2.2-2-2.9-3.4s-1.1-3-1.1-5.1c0-2.2,0.5-4,1.6-5.5s2.4-2.7,4-3.5
				c1.6-0.9,3.4-1.5,5.4-1.9s3.9-0.5,5.7-0.5c2.1,0,4.1,0.2,5.9,0.7c1.9,0.4,3.6,1.1,5.1,2.1s2.8,2.3,3.8,3.8c1,1.6,1.6,3.5,1.9,5.7
				H665c-0.4-2.1-1.4-3.5-2.9-4.2s-3.3-1.1-5.2-1.1c-0.6,0-1.4,0-2.2,0.2c-0.9,0.1-1.6,0.3-2.4,0.6c-0.7,0.3-1.4,0.7-1.9,1.2
				s-0.8,1.2-0.8,2.1c0,1.1,0.4,1.9,1.1,2.6c0.7,0.7,1.7,1.2,2.9,1.7c1.2,0.4,2.6,0.8,4.1,1.1c1.6,0.3,3.2,0.7,4.8,1
				c1.6,0.4,3.2,0.8,4.7,1.3c1.6,0.5,2.9,1.2,4.1,2.1c1.2,0.9,2.2,2,2.9,3.3s1.1,3,1.1,5c0,2.4-0.5,4.4-1.6,6s-2.5,3-4.2,4
				s-3.7,1.8-5.8,2.3s-4.2,0.7-6.3,0.7c-2.5,0-4.9-0.3-7-0.9s-4-1.4-5.6-2.6s-2.8-2.6-3.7-4.3s-1.4-3.8-1.4-6.2L648.8-17.2
				L648.8-17.2z M677.8-44.3h6.7v-12h8.8v12h8v6.6h-8v21.4c0,0.9,0,1.7,0.1,2.4s0.3,1.2,0.5,1.7c0.3,0.5,0.7,0.8,1.3,1.1
				c0.6,0.2,1.3,0.4,2.3,0.4c0.6,0,1.2,0,1.9,0c0.6,0,1.2-0.1,1.9-0.3v6.8c-1,0.1-1.9,0.2-2.8,0.3c-0.9,0.1-1.9,0.2-2.8,0.2
				c-2.3,0-4.2-0.2-5.6-0.7c-1.4-0.4-2.5-1.1-3.3-1.9c-0.8-0.9-1.3-1.9-1.6-3.2s-0.5-2.8-0.5-4.4v-23.6H678L677.8-44.3L677.8-44.3z
				 M707.5-44.3h8.3v5.4h0.2c1.2-2.3,3-4,5.2-5s4.6-1.5,7.2-1.5c3.2,0,5.9,0.5,8.2,1.7c2.3,1.1,4.3,2.6,5.8,4.6
				c1.6,1.9,2.7,4.2,3.5,6.8s1.2,5.3,1.2,8.3c0,2.7-0.4,5.3-1.1,7.8c-0.7,2.5-1.8,4.8-3.2,6.7s-3.2,3.5-5.4,4.6
				c-2.2,1.2-4.7,1.8-7.7,1.8c-1.3,0-2.6-0.1-3.9-0.4c-1.3-0.2-2.5-0.6-3.7-1.1s-2.3-1.2-3.3-2s-1.8-1.8-2.5-2.8h-0.2v20h-8.8v-54.9
				H707.5z M738.3-24.3c0-1.8-0.2-3.5-0.7-5.3c-0.5-1.7-1.2-3.2-2.1-4.5c-0.9-1.3-2.1-2.4-3.5-3.2s-3-1.2-4.8-1.2
				c-3.7,0-6.5,1.3-8.4,3.9s-2.8,6-2.8,10.3c0,2,0.2,3.9,0.7,5.6s1.2,3.2,2.2,4.4s2.1,2.2,3.5,2.9s3,1.1,4.8,1.1
				c2,0,3.7-0.4,5.1-1.2c1.4-0.8,2.5-1.9,3.4-3.2s1.6-2.8,1.9-4.5C738.1-20.8,738.3-22.5,738.3-24.3z M753.8-59.6h8.8v8.3h-8.8
				V-59.6z M753.8-44.3h8.8v40h-8.8V-44.3z M770.5-59.6h8.8v55.2h-8.8V-59.6z M806.4-3.2c-3.2,0-6-0.5-8.5-1.6s-4.6-2.5-6.4-4.4
				c-1.7-1.9-3-4.1-3.9-6.7s-1.4-5.4-1.4-8.5c0-3,0.5-5.8,1.4-8.4s2.2-4.8,3.9-6.7s3.9-3.3,6.4-4.4c2.5-1.1,5.3-1.6,8.5-1.6
				s6,0.5,8.5,1.6s4.6,2.5,6.4,4.4c1.7,1.9,3,4.1,3.9,6.7s1.4,5.4,1.4,8.4c0,3.1-0.5,5.9-1.4,8.5s-2.2,4.8-3.9,6.7s-3.9,3.3-6.4,4.4
				C812.4-3.8,809.5-3.2,806.4-3.2z M806.4-10.2c1.9,0,3.7-0.4,5.1-1.2c1.4-0.8,2.6-1.9,3.5-3.2s1.6-2.8,2.1-4.5
				c0.4-1.7,0.7-3.4,0.7-5.1s-0.2-3.4-0.7-5.1c-0.4-1.7-1.1-3.2-2.1-4.5c-0.9-1.3-2.1-2.4-3.5-3.2s-3.2-1.2-5.1-1.2
				c-1.9,0-3.7,0.4-5.1,1.2c-1.4,0.8-2.6,1.9-3.5,3.2s-1.6,2.8-2.1,4.5c-0.4,1.7-0.7,3.4-0.7,5.1c0,1.8,0.2,3.5,0.7,5.1
				c0.4,1.7,1.1,3.2,2.1,4.5c0.9,1.3,2.1,2.4,3.5,3.2C802.7-10.6,804.4-10.2,806.4-10.2z M829.1-44.3h6.7v-12h8.8v12h8v6.6h-8v21.4
				c0,0.9,0,1.7,0.1,2.4s0.3,1.2,0.5,1.7c0.3,0.5,0.7,0.8,1.3,1.1c0.6,0.2,1.3,0.4,2.3,0.4c0.6,0,1.2,0,1.9,0c0.6,0,1.2-0.1,1.9-0.3
				v6.8c-1,0.1-1.9,0.2-2.8,0.3c-0.9,0.1-1.9,0.2-2.8,0.2c-2.3,0-4.2-0.2-5.6-0.7c-1.4-0.4-2.5-1.1-3.3-1.9
				c-0.8-0.9-1.3-1.9-1.6-3.2s-0.5-2.8-0.5-4.4v-23.6h-6.7L829.1-44.3L829.1-44.3z"/>
		</g>
		<g id="Star_1_">
			<polygon id="Path_3_" class="st1" points="813.7,38.4 773.3,38.4 760.9,0 748.4,38.4 708,38.4 740.7,62.2 728.2,100.6 
				760.9,76.8 793.5,100.6 781.1,62.2 			"/>
			<polygon id="Path_2_" class="st2" points="783.9,70.9 781.1,62.2 760.9,76.8 			"/>
		</g>
	</g>
	<g id="Trustpilot_ratings_4halfstar-RGB_1_" transform="translate(0.000000, 319.000000)">
		<rect id="Rectangle-path_11_" x="17.1" y="-191" class="st1" width="212" height="212"/>
		<rect id="Rectangle-path_10_" x="247.1" y="-191" class="st1" width="212" height="212"/>
		<rect id="Rectangle-path_9_" x="476.1" y="-191" class="st1" width="212" height="212"/>
		<rect id="Rectangle-path_8_" x="706.1" y="-191" class="st1" width="212" height="212"/>
		<g id="Half_1_" transform="translate(919.000000, 0.000000)">
			<rect id="Rectangle-path_7_" x="123.1" y="-191" class="st3" width="106" height="212"/>
			<rect id="Rectangle-path_6_" x="17.1" y="-191" class="st1" width="106" height="212"/>
		</g>
		<path id="Shape_10_" class="st4" d="M123.1-48.3l32.2-8.1L168.7-15L123.1-48.3z M197.1-101.8h-56.6L123.1-155l-17.4,53.3H49.1
			l45.8,33L77.6-15.5l45.8-33l28.2-20.3L197.1-101.8L197.1-101.8L197.1-101.8L197.1-101.8z"/>
		<path id="Shape_9_" class="st4" d="M353.1-48.3l32.2-8.1L398.7-15L353.1-48.3z M427.1-101.8h-56.6L353.1-155l-17.4,53.3h-56.6
			l45.8,33l-17.4,53.3l45.8-33l28.2-20.3L427.1-101.8L427.1-101.8L427.1-101.8L427.1-101.8z"/>
		<path id="Shape_8_" class="st4" d="M582.1-48.3l32.2-8.1L627.7-15L582.1-48.3z M656.1-101.8h-56.6L582.1-155l-17.4,53.3h-56.6
			l45.8,33l-17.4,53.3l45.8-33l28.2-20.3L656.1-101.8L656.1-101.8L656.1-101.8L656.1-101.8z"/>
		<path id="Shape_7_" class="st4" d="M812.1-48.3l32.2-8.1L857.7-15L812.1-48.3z M886.1-101.8h-56.6L812.1-155l-17.4,53.3h-56.6
			l45.8,33l-17.4,53.3l45.8-33l28.2-20.3L886.1-101.8L886.1-101.8L886.1-101.8L886.1-101.8z"/>
		<path id="Shape_6_" class="st4" d="M1042.1-48.3l32.2-8.1l13.4,41.4L1042.1-48.3z M1116.1-101.8h-56.6l-17.4-53.3l-17.4,53.3
			h-56.6l45.8,33l-17.4,53.3l45.8-33l28.2-20.3L1116.1-101.8L1116.1-101.8L1116.1-101.8L1116.1-101.8z"/>
	</g>
	<rect x="16.3" y="36.1" class="st5" width="691.7" height="264.3"/>
	<g class="st6">
		<path d="M61.4,37.6c2.2,1,4.1,2.4,5.7,4.2c1.3,1.5,2.3,3.2,3,5.1s1.1,4,1.1,6.4c0,2.9-0.7,5.7-2.2,8.5c-1.4,2.8-3.8,4.7-7.2,5.9
			c2.8,1.1,4.8,2.7,5.9,4.8c1.2,2.1,1.7,5.2,1.7,9.5v4.1c0,2.8,0.1,4.6,0.3,5.6c0.3,1.6,1.1,2.7,2.3,3.4v1.5H58.3
			c-0.4-1.3-0.7-2.4-0.8-3.2C57.2,91.5,57,89.8,57,88l-0.1-5.6c-0.1-3.9-0.7-6.4-2-7.7c-1.3-1.3-3.7-1.9-7.2-1.9H35.3v23.7H23V36
			h28.9C56,36.1,59.2,36.6,61.4,37.6z M35.3,46.5v16.2h13.6c2.7,0,4.7-0.3,6.1-1c2.4-1.1,3.6-3.4,3.6-6.8c0-3.7-1.2-6.1-3.5-7.4
			c-1.3-0.7-3.2-1.1-5.8-1.1H35.3z"/>
		<path d="M100.1,69.3c2.2-0.3,3.7-0.6,4.7-1c1.7-0.7,2.5-1.8,2.5-3.3c0-1.8-0.6-3.1-1.9-3.8c-1.3-0.7-3.2-1-5.7-1
			c-2.8,0-4.8,0.7-5.9,2.1c-0.8,1-1.4,2.4-1.7,4.1H80.8c0.2-3.9,1.3-7.1,3.3-9.6c3.1-3.9,8.4-5.9,16-5.9c4.9,0,9.3,1,13.1,2.9
			c3.8,1.9,5.7,5.6,5.7,11v20.5c0,1.4,0,3.1,0.1,5.2c0.1,1.5,0.3,2.6,0.7,3.1c0.4,0.5,1,1,1.7,1.4v1.7h-12.7
			c-0.4-0.9-0.6-1.8-0.7-2.5c-0.1-0.8-0.2-1.7-0.3-2.7c-1.6,1.8-3.5,3.2-5.6,4.5c-2.5,1.4-5.4,2.2-8.6,2.2c-4.1,0-7.4-1.2-10.1-3.5
			c-2.7-2.3-4-5.6-4-9.8c0-5.5,2.1-9.5,6.4-11.9c2.3-1.3,5.8-2.3,10.3-2.9L100.1,69.3z M107.3,74.7c-0.7,0.5-1.5,0.8-2.3,1.1
			c-0.8,0.3-1.8,0.6-3.1,0.8l-2.7,0.5c-2.5,0.4-4.3,1-5.4,1.6c-1.8,1.1-2.8,2.7-2.8,5c0,2,0.6,3.4,1.7,4.3s2.5,1.3,4.1,1.3
			c2.6,0,4.9-0.7,7.1-2.2s3.3-4.2,3.4-8.1V74.7z"/>
		<path d="M124.5,60.5v-8.3h6.2V39.7h11.6v12.5h7.3v8.3h-7.3v23.6c0,1.8,0.2,3,0.7,3.4c0.5,0.5,1.9,0.7,4.3,0.7c0.4,0,0.7,0,1.1,0
			c0.4,0,0.8,0,1.2-0.1v8.7l-5.5,0.2c-5.5,0.2-9.3-0.8-11.3-2.9c-1.3-1.3-2-3.4-2-6.2V60.5H124.5z"/>
		<path d="M186.2,52.6c3.1,1.4,5.7,3.6,7.7,6.6c1.8,2.7,3,5.7,3.6,9.2c0.3,2.1,0.4,5,0.4,8.9h-32.6c0.2,4.5,1.7,7.6,4.7,9.4
			c1.8,1.1,3.9,1.7,6.4,1.7c2.7,0,4.8-0.7,6.5-2.1c0.9-0.7,1.7-1.8,2.4-3.1h11.9c-0.3,2.7-1.8,5.3-4.3,8.1c-4,4.3-9.6,6.5-16.8,6.5
			c-5.9,0-11.2-1.8-15.7-5.5c-4.5-3.7-6.8-9.6-6.8-17.9c0-7.7,2.1-13.7,6.2-17.8c4.1-4.1,9.4-6.2,16-6.2
			C179.6,50.6,183.1,51.3,186.2,52.6z M168.8,62.7c-1.7,1.7-2.7,4-3.1,6.9h20.1c-0.2-3.1-1.3-5.5-3.1-7.1c-1.9-1.6-4.2-2.4-6.9-2.4
			C172.7,60.2,170.4,61,168.8,62.7z"/>
		<path d="M227.5,52.5c2.1,1.2,3.8,2.8,5.1,4.9V36.1h11.9v60.4h-11.4v-6.2c-1.7,2.7-3.6,4.6-5.7,5.8s-4.8,1.8-8,1.8
			c-5.2,0-9.6-2.1-13.2-6.3s-5.4-9.6-5.4-16.3c0-7.6,1.8-13.6,5.3-18c3.5-4.4,8.2-6.6,14.1-6.6C223,50.7,225.4,51.3,227.5,52.5z
			 M230.4,84.3c1.7-2.5,2.6-5.6,2.6-9.6c0-5.5-1.4-9.4-4.1-11.7c-1.7-1.4-3.7-2.1-5.9-2.1c-3.4,0-5.9,1.3-7.5,3.9s-2.4,5.8-2.4,9.6
			c0,4.1,0.8,7.4,2.4,9.9c1.6,2.5,4.1,3.7,7.4,3.7C226.2,88,228.7,86.8,230.4,84.3z"/>
		<path d="M324.1,46.7h-32v12.8h29.4V70h-29.4v15.5h33.5v10.9h-45.8V36h44.3V46.7z"/>
		<path d="M330.1,96.4l15.3-22.6l-14.6-22H345l7.5,12.9l7.3-12.9h13.9L359,73.6l15.3,22.8h-14.6L352,83l-7.8,13.4H330.1z"/>
		<path d="M408,67.8c-0.2-1.7-0.8-3.2-1.7-4.5c-1.3-1.8-3.4-2.7-6.1-2.7c-3.9,0-6.6,2-8.1,5.9c-0.8,2.1-1.2,4.8-1.2,8.3
			c0,3.3,0.4,5.9,1.2,7.9c1.4,3.7,4,5.6,7.9,5.6c2.7,0,4.7-0.7,5.8-2.2c1.2-1.5,1.8-3.4,2.1-5.7h11.9c-0.3,3.6-1.6,6.9-3.9,10.1
			c-3.7,5.1-9.1,7.7-16.3,7.7c-7.2,0-12.5-2.1-15.9-6.4c-3.4-4.3-5.1-9.8-5.1-16.6c0-7.7,1.9-13.6,5.6-17.9
			c3.8-4.3,8.9-6.4,15.5-6.4c5.6,0,10.2,1.3,13.8,3.8s5.7,7,6.3,13.3H408z"/>
		<path d="M457.1,52.6c3.1,1.4,5.7,3.6,7.7,6.6c1.8,2.7,3,5.7,3.6,9.2c0.3,2.1,0.4,5,0.4,8.9h-32.6c0.2,4.5,1.7,7.6,4.7,9.4
			c1.8,1.1,3.9,1.7,6.4,1.7c2.7,0,4.8-0.7,6.5-2.1c0.9-0.7,1.7-1.8,2.4-3.1h11.9c-0.3,2.7-1.8,5.3-4.3,8.1c-4,4.3-9.6,6.5-16.8,6.5
			c-5.9,0-11.2-1.8-15.7-5.5c-4.5-3.7-6.8-9.6-6.8-17.9c0-7.7,2.1-13.7,6.2-17.8c4.1-4.1,9.4-6.2,16-6.2
			C450.4,50.6,454,51.3,457.1,52.6z M439.6,62.7c-1.7,1.7-2.7,4-3.1,6.9h20.1c-0.2-3.1-1.2-5.5-3.1-7.1c-1.9-1.6-4.2-2.4-6.9-2.4
			C443.6,60.2,441.2,61,439.6,62.7z"/>
		<path d="M486.6,96.4h-11.7V36h11.7V96.4z"/>
		<path d="M509.9,96.4h-11.7V36h11.7V96.4z"/>
		<path d="M550.5,52.6c3.1,1.4,5.7,3.6,7.7,6.6c1.8,2.7,3,5.7,3.6,9.2c0.3,2.1,0.4,5,0.4,8.9h-32.6c0.2,4.5,1.7,7.6,4.7,9.4
			c1.8,1.1,3.9,1.7,6.4,1.7c2.7,0,4.8-0.7,6.5-2.1c0.9-0.7,1.7-1.8,2.4-3.1h11.9c-0.3,2.7-1.8,5.3-4.3,8.1c-4,4.3-9.6,6.5-16.8,6.5
			c-5.9,0-11.2-1.8-15.7-5.5c-4.5-3.7-6.8-9.6-6.8-17.9c0-7.7,2.1-13.7,6.2-17.8c4.1-4.1,9.4-6.2,16-6.2
			C543.8,50.6,547.3,51.3,550.5,52.6z M533,62.7c-1.7,1.7-2.7,4-3.1,6.9H550c-0.2-3.1-1.2-5.5-3.1-7.1c-1.9-1.6-4.2-2.4-6.9-2.4
			C537,60.2,534.6,61,533,62.7z"/>
		<path d="M604.1,54.3c2.9,2.4,4.4,6.4,4.4,12v30.1h-12V69.3c0-2.4-0.3-4.2-0.9-5.4c-1.1-2.3-3.3-3.4-6.5-3.4c-3.9,0-6.6,1.7-8.1,5
			c-0.8,1.8-1.1,4-1.1,6.8v24.2h-11.7V51.8h11.3v6.5c1.5-2.3,2.9-4,4.2-5c2.4-1.8,5.4-2.7,9.1-2.7C597.4,50.7,601.2,51.9,604.1,54.3
			z"/>
		<path d="M614.8,60.5v-8.3h6.2V39.7h11.6v12.5h7.3v8.3h-7.3v23.6c0,1.8,0.2,3,0.7,3.4s1.9,0.7,4.3,0.7c0.4,0,0.7,0,1.1,0
			s0.8,0,1.2-0.1v8.7l-5.5,0.2c-5.5,0.2-9.3-0.8-11.3-2.9c-1.3-1.3-2-3.4-2-6.2V60.5H614.8z"/>
	</g>
</g>
</svg>
