<?xml version="1.0" encoding="UTF-8"?>
<svg id="Layer_1" xmlns="http://www.w3.org/2000/svg" xmlns:xlink="http://www.w3.org/1999/xlink" version="1.1" viewBox="0 0 965.8 500">
  <!-- Generator: Adobe Illustrator 30.1.0, SVG Export Plug-In . SVG Version: 2.1.1 Build 136)  -->
  <defs>
    <style>
      .st0 {
        fill: none;
      }

      .st1 {
        clip-path: url(#clippath-1);
      }

      .st2 {
        fill: #141414;
      }

      .st3 {
        opacity: .6;
      }

      .st4 {
        opacity: .3;
      }

      .st5 {
        clip-path: url(#clippath);
      }
    </style>
    <clipPath id="clippath">
      <rect class="st0" x="29" y="73.6" width="352.8" height="352.8"/>
    </clipPath>
    <clipPath id="clippath-1">
      <rect class="st0" x="29" y="73.6" width="352.8" height="352.8"/>
    </clipPath>
  </defs>
  <g>
    <path class="st2" d="M446.3,108.5v-35.4h11.4v34.2c0,10,4.2,15.2,13.3,15.2s13.4-5.2,13.4-15.1v-34.3h11.5v35.4c0,16.9-11,23.6-24.9,23.6s-24.8-6.7-24.8-23.6Z"/>
    <path class="st2" d="M511.3,117.3c.6,4.9,4.3,7.4,9.9,7.4s7.4-1.4,7.4-4.3-1.8-4-5.9-4.6l-6.4-1.1c-8.7-1.4-13.4-4.6-13.4-12.1s6.5-13.1,16.8-13.1,17.9,5.1,18.7,14.1l-9.1.4c-.7-4.6-3.9-6.9-9.7-6.9s-6.5,1.8-6.5,4.5,1.5,3.5,4.4,4l7.7,1.3c8.6,1.4,13.6,5,13.6,12.6s-7.2,12.9-17.7,12.9-18.7-4.6-19.4-14.5l9.6-.4h0Z"/>
    <path class="st2" d="M584.2,117.5h.4l8.4-27h10l-12.9,40.6h-10.7l-7.4-26.8h-.4l-7.4,26.8h-10.8l-12.9-40.6h11l8.5,27h.4l7.4-27.1h8.9l7.5,27.1h0Z"/>
    <path class="st2" d="M607.4,73.1h11.3v10.8h-11.3v-10.8ZM618.6,90.5v40.6h-11v-40.6h11Z"/>
    <path class="st2" d="M628.9,98.2h-5.8v-6.5l2.8-.5c4-.6,5.1-2.7,6-6.4l1.3-5.5h6.7v11.2h11v7.7h-11v20.1c0,3.5,1.6,5.1,4.9,5.1s4.5-.8,6.9-1.9v7.3c-2.9,2.2-6.3,3.5-11.2,3.5s-11.5-2.8-11.5-11.4v-22.5h0Z"/>
    <path class="st2" d="M676.4,89.4c12,0,18.7,7.9,19.6,17.7l-9.3.6c-.8-6.1-4.2-9.8-10.3-9.8s-10.3,4.5-10.3,13,4.2,12.9,10.3,12.9,9.5-3.9,10.3-10l9.3.8c-.9,9.8-7.5,17.7-19.6,17.7s-21.4-8.5-21.4-21.3,8.9-21.4,21.4-21.4h0Z"/>
    <path class="st2" d="M713.4,131.1h-11v-58h11v24c2-4.6,7.2-7.7,13.2-7.7,10.9,0,14.8,7.4,14.8,16.4v25.3h-11v-23.1c0-6.3-2.5-9.8-7.9-9.8s-9.1,4.4-9.1,11.2v21.7Z"/>
    <path class="st2" d="M472,229.1h-24.7v-58h23.6c14.3,0,20.2,6.3,20.2,15.5s-4.8,11.3-11,12.4c7.1,1.2,12.6,5.9,12.6,14.2s-7.4,15.9-20.9,15.9h0ZM455.1,196.1h16.2c8.4,0,12-3.6,12-9.2s-3.6-9.3-12-9.3h-16.2v18.5h0ZM455.1,202.3v20.2h16.7c8.7,0,13.2-3.8,13.2-10s-4.5-10.2-13.2-10.2h-16.7Z"/>
    <path class="st2" d="M538.4,215.5c-2,9.1-8.7,14.6-18.8,14.6s-20.7-8.1-20.7-20.6,8.7-21.8,20.3-21.8,19.3,9.1,19.3,20.1v3h-32c.4,7.8,6,13.3,13.2,13.3s10.7-3.2,12.3-9.4l6.3.7h0ZM530.7,205.9c-.3-6.4-3.9-12.3-11.5-12.3s-11.6,5.7-12.5,12.3h24Z"/>
    <path class="st2" d="M550,215.1c.7,6.2,5.1,9.5,12,9.5s9.3-1.9,9.3-6-2.7-5.1-7.6-6l-6.8-1.2c-7.5-1.2-12-4.4-12-11.3s6.2-12.3,15.5-12.3,16.9,5,17.7,14.3l-6.2.4c-.9-6.2-4.7-9-11.5-9s-8.4,2.3-8.4,6,2,4.9,6.2,5.6l7.5,1.2c8.1,1.4,12.9,4.4,12.9,11.7s-7.1,12.3-16.5,12.3-17.7-4.7-18.4-14.6l6.4-.5h0Z"/>
    <path class="st2" d="M587.3,194.4h-6.1v-4.1l2.6-.5c3.8-.7,4.6-2.6,5.5-6.4l1.2-5.6h4.3v11.1h11.3v5.5h-11.3v24.4c0,3.6,1.5,5.2,5,5.2s5.2-1.1,7.5-2.4v5.1c-2.9,2.2-5.9,3.4-10.3,3.4s-9.8-2.7-9.8-10.5v-25.3h0Z"/>
    <path class="st2" d="M655.7,229.1l-17.6-49.9h-.4v49.9h-7.5v-58h12.8l16.3,47.2h.3l15.5-47.2h12.6v58h-8v-49.9h-.4l-16.9,49.9h-6.7Z"/>
    <path class="st2" d="M716,230.2c-11.8,0-20.4-8.6-20.4-21.2s8.7-21.2,20.4-21.2,20.6,8.7,20.6,21.2-8.7,21.2-20.6,21.2ZM716,224.3c8.2,0,12.8-6.4,12.8-15.3s-4.6-15.3-12.8-15.3-12.6,6.3-12.6,15.3,4.5,15.3,12.6,15.3Z"/>
    <path class="st2" d="M750,229.1h-5.8v-58h7.6v26.2c1.8-5,6.9-9.6,14.4-9.6,11.9,0,18.4,9.4,18.4,21.2s-6.5,21.2-18.5,21.2-12.7-4.4-14.5-9.5l-1.7,8.4h0ZM751.6,210.1c0,8.8,5.6,14,12.9,14s12.2-5.9,12.2-15.1-4.3-15.1-12.2-15.1-12.9,5.1-12.9,13.9v2.3h0Z"/>
    <path class="st2" d="M792,171.1h7.9v8.6h-7.9v-8.6ZM799.8,188.9v40.2h-7.6v-40.2h7.6Z"/>
    <path class="st2" d="M817.5,171.1v58h-7.6v-58h7.6Z"/>
    <path class="st2" d="M864.4,215.5c-2,9.1-8.7,14.6-18.8,14.6s-20.7-8.1-20.7-20.6,8.7-21.8,20.3-21.8,19.3,9.1,19.3,20.1v3h-32c.4,7.8,6,13.3,13.2,13.3s10.7-3.2,12.3-9.4l6.3.7h0ZM856.8,205.9c-.3-6.4-3.9-12.3-11.5-12.3s-11.6,5.7-12.5,12.3h24Z"/>
    <path class="st2" d="M876,215.1c.7,6.2,5.1,9.5,12,9.5s9.3-1.9,9.3-6-2.7-5.1-7.6-6l-6.8-1.2c-7.5-1.2-12.1-4.4-12.1-11.3s6.2-12.3,15.5-12.3,16.9,5,17.7,14.3l-6.2.4c-.9-6.2-4.7-9-11.5-9s-8.4,2.3-8.4,6,2,4.9,6.2,5.6l7.5,1.2c8.1,1.4,12.9,4.4,12.9,11.7s-7.1,12.3-16.5,12.3-17.7-4.7-18.4-14.6l6.4-.5h0Z"/>
    <path class="st2" d="M485.3,327.1c-1.1-1.6-1.9-5.8-2.4-12.6-.4-6.4-3.4-10.8-11.3-10.8h-16.4v23.4h-7.8v-58h23.5c14.7,0,21.8,6.8,21.8,17.1s-6.1,13.6-13.2,14.4c7.1,1.4,10.5,5.7,11,12.5.7,8.5,1,11.8,2.9,13.9h-8.3,0ZM470.5,297.3c9.8,0,14.3-3.7,14.3-10.9s-4.4-10.9-14.3-10.9h-15.3v21.7h15.3Z"/>
    <path class="st2" d="M538.6,313.5c-2,9.1-8.7,14.6-18.8,14.6s-20.7-8.1-20.7-20.6,8.7-21.8,20.3-21.8,19.3,9.1,19.3,20v3h-32c.4,7.8,6,13.3,13.2,13.3s10.7-3.2,12.3-9.4l6.3.7h0ZM530.9,303.9c-.3-6.4-3.9-12.3-11.5-12.3s-11.6,5.7-12.5,12.3h24Z"/>
    <path class="st2" d="M550.1,313.1c.7,6.2,5.1,9.5,12,9.5s9.3-1.9,9.3-6-2.7-5.1-7.6-6l-6.8-1.2c-7.5-1.2-12-4.4-12-11.3s6.2-12.3,15.5-12.3,16.9,5,17.7,14.3l-6.2.4c-.9-6.2-4.7-9-11.5-9s-8.4,2.3-8.4,6,2,4.9,6.2,5.6l7.5,1.2c8.1,1.4,12.9,4.4,12.9,11.7s-7.1,12.3-16.5,12.3-17.7-4.7-18.4-14.6l6.4-.5h0Z"/>
    <path class="st2" d="M623.2,313.5c-2,9.1-8.7,14.6-18.8,14.6s-20.7-8.1-20.7-20.6,8.7-21.8,20.3-21.8,19.3,9.1,19.3,20v3h-32c.4,7.8,6,13.3,13.2,13.3s10.7-3.2,12.3-9.4l6.3.7h0ZM615.6,303.9c-.3-6.4-3.9-12.3-11.5-12.3s-11.6,5.7-12.5,12.3h24Z"/>
    <path class="st2" d="M638.6,269.1v58h-7.6v-58h7.6Z"/>
    <path class="st2" d="M656.2,269.1v58h-7.6v-58h7.6Z"/>
    <path class="st2" d="M703.1,313.5c-2,9.1-8.7,14.6-18.8,14.6s-20.7-8.1-20.7-20.6,8.7-21.8,20.3-21.8,19.3,9.1,19.3,20v3h-32c.4,7.8,6,13.3,13.2,13.3s10.7-3.2,12.3-9.4l6.3.7h0ZM695.5,303.9c-.3-6.4-3.9-12.3-11.5-12.3s-11.6,5.7-12.5,12.3h24Z"/>
    <path class="st2" d="M734.9,294.5c-2.2-1.2-3.8-1.7-6.3-1.7-5.8,0-10.1,5.2-10.1,13v21.2h-7.6v-40.2h7.6v8.2c1.5-4.6,5.6-9.3,11.4-9.3s4.3.6,5.7,1.8l-.7,6.9h0Z"/>
    <path class="st2" d="M498,409.8h.4l10.6-42.7h11l-15,58h-12.7l-11-41.8h-.4l-11,41.8h-12.6l-15-58h11.5l10.7,42.6h.4l11.2-42.6h10.6l11.3,42.7h0Z"/>
    <path class="st2" d="M524.8,367.1h11.3v10.8h-11.3v-10.8ZM536,384.5v40.6h-11v-40.6h11Z"/>
    <path class="st2" d="M555.9,425.1h-11v-40.6h11v6.6c2-4.6,7.2-7.7,13.2-7.7,10.9,0,14.8,7.4,14.8,16.4v25.3h-11v-23.1c0-6.3-2.5-9.8-7.9-9.8s-9.1,4.4-9.1,11.2v21.7h0Z"/>
    <path class="st2" d="M603.5,425.1h-11v-40.6h11v6.6c2-4.6,7.2-7.7,13.2-7.7,10.9,0,14.8,7.4,14.8,16.4v25.3h-11v-23.1c0-6.3-2.5-9.8-7.9-9.8s-9.1,4.4-9.1,11.2v21.7h0Z"/>
    <path class="st2" d="M678.7,411.8c-2.1,9-9.1,14.4-19.5,14.4s-21.5-8-21.5-20.8,9.1-22,21.2-22,20.1,9.2,20.1,20.2v4h-30.5c.4,6,5.1,10.2,11,10.2s8.7-2.3,10.2-6.9l8.9.9h0ZM668.2,400.7c-.4-4.7-3.2-9.2-9.4-9.2s-9.1,4.1-10.1,9.2h19.5Z"/>
    <path class="st2" d="M712.9,395.3c-2.1-1.2-4-1.8-6.6-1.8-5.7,0-9.6,4-9.6,11.4v20h-11v-40.6h11v7.7c1.5-4.6,5.7-8.8,11.3-8.8s4.5.6,5.7,1.7l-.8,10.3Z"/>
    <path class="st2" d="M776,415.3v9.8h-43.7v-7.7l16.2-13.3c9-7.5,14-12.1,14-19.1s-2.8-9.2-9-9.2-9.7,4.4-9.7,11.1.2,3.5.6,5.1l-11.4-.5c-.4-1.8-.6-3.7-.6-5.4,0-12.1,8.6-20,21.3-20s20.8,7.9,20.8,18.2-7.2,16.7-15.9,23.7l-9.2,7.4h26.6Z"/>
    <path class="st2" d="M804.4,426.2c-15.5,0-25-10.9-25-30.1s9.6-30.1,25-30.1,25.1,10.9,25.1,30.1-9.6,30.1-25.1,30.1ZM804.4,375.3c-8.9,0-12.9,6.8-12.9,20.8s4,20.8,12.9,20.8,13-6.8,13-20.8-4-20.8-13-20.8Z"/>
    <path class="st2" d="M877.8,415.3v9.8h-43.7v-7.7l16.2-13.3c9-7.5,14-12.1,14-19.1s-2.8-9.2-9-9.2-9.7,4.4-9.7,11.1.2,3.5.6,5.1l-11.4-.5c-.4-1.8-.6-3.7-.6-5.4,0-12.1,8.6-20,21.3-20s20.8,7.9,20.8,18.2-7.2,16.7-15.9,23.7l-9.2,7.4h26.6Z"/>
    <path class="st2" d="M891.5,395.7c2.3-5.1,7.6-8.8,15.3-8.8,12.6,0,20.3,7.9,20.3,19.2s-8.8,20-21.9,20-24.2-11.3-24.2-29.4,8.1-30.8,24.6-30.8,19.9,6.5,20.9,17.8l-10.8.3c-.7-5.4-4.1-8.8-10.3-8.8-9.2,0-13.7,8.5-13.9,20.5h0ZM905,417.1c7,0,11-4.3,11-10.7s-4.1-10.8-11.1-10.8-11,4.2-11,10.8,4.2,10.7,11.1,10.7Z"/>
  </g>
  <g>
    <path class="st2" d="M77.2,122v256h256V122H77.2ZM277.8,271.3c0,45.1-28,69-72.6,69s-72.6-23.9-72.6-69v-108.2h32.9v108.4c0,27.3,14.8,40.2,39.7,40.2s39.7-12.9,39.7-40.2v-108.4h32.9v108.2s0,0,0,0Z"/>
    <g class="st3">
      <g class="st5">
        <path class="st2" d="M164.7,73.6L29,290.7l217.1,135.7,135.7-217.1L164.7,73.6h0ZM205.2,340.3c-43.6,0-72.6-23.9-72.6-69v-108.2h32.9v108.4c0,27.3,14.8,40.2,39.7,40.2s39.7-12.9,39.7-40.2v-108.4h32.9v108.2c0,45.1-28,69-72.6,69"/>
      </g>
    </g>
    <g class="st4">
      <g class="st1">
        <path class="st2" d="M246.1,73.6L29,209.3l135.7,217.1,217.1-135.7L246.1,73.6h0ZM205.2,340.3c-43.6,0-72.6-23.9-72.6-69v-108.2h32.9v108.4c0,27.3,14.8,40.2,39.7,40.2s39.7-12.9,39.7-40.2v-108.4h32.9v108.2c0,45.1-28,69-72.6,69"/>
      </g>
    </g>
  </g>
</svg>